<svg width="24" height="24" viewBox="0 0 24 24" fill="none" xmlns="http://www.w3.org/2000/svg">
<g clip-path="url(#clip0_53_8110)">
<path fill-rule="evenodd" clip-rule="evenodd" d="M7.14191 2.56058C6.55979 2.04313 5.78201 1.73376 4.92527 1.74987C4.16612 1.76622 3.46712 2.04823 2.90863 2.50757C2.18015 3.11549 1.72591 4.04819 1.74993 5.07114C1.7665 5.68528 1.94596 6.24766 2.25584 6.71645L2.25988 6.72257C2.36073 6.87841 2.45281 7.00579 2.54846 7.10828C2.55747 7.11793 2.56622 7.12782 2.57471 7.13793C3.16072 7.83633 4.06406 8.27463 5.07206 8.25024L5.07535 8.25017C5.89699 8.2339 6.62745 7.91834 7.17194 7.39787C7.18367 7.38665 7.19577 7.37581 7.20821 7.36538C7.43862 7.17214 7.64278 6.917 7.80457 6.62578L7.81429 6.60882C8.10541 6.11552 8.26654 5.53389 8.25044 4.92999C8.22599 3.97667 7.80405 3.14099 7.14581 2.56402L7.14191 2.56058ZM8.1365 1.43772C7.27903 0.676391 6.13784 0.2265 4.89586 0.250156L4.89419 0.25019C3.77443 0.274015 2.75442 0.691391 1.95338 1.35107L1.95003 1.35385C0.879742 2.24575 0.214771 3.61204 0.250386 5.1079L0.25044 5.11004C0.274017 5.99418 0.533813 6.83021 1.00245 7.54048C1.11827 7.7193 1.26111 7.92465 1.43805 8.11683C2.31192 9.14935 3.64228 9.78476 5.10667 9.74984C6.29587 9.7259 7.37778 9.26794 8.19098 8.49874C8.56935 8.17699 8.87727 7.78147 9.11105 7.3628C9.53676 6.63797 9.77365 5.78284 9.74991 4.89031C9.71425 3.50474 9.09705 2.2806 8.1365 1.43772Z" fill="#2196F3" stroke="black"/>
<path fill-rule="evenodd" clip-rule="evenodd" d="M7.0792 3.44874C7.36706 3.74658 7.35898 4.22138 7.06115 4.50925L4.97118 6.52927C4.68224 6.80854 4.22454 6.81046 3.93326 6.53362L2.92325 5.57366C2.62302 5.2883 2.61096 4.81358 2.89632 4.51334C3.18168 4.2131 3.6564 4.20104 3.95663 4.4864L4.4456 4.95114L6.01869 3.43069C6.31653 3.14283 6.79133 3.15091 7.0792 3.44874Z" fill="#2196F3" stroke="black"/>
<path fill-rule="evenodd" clip-rule="evenodd" d="M6.93805 1.7359C7.04804 1.44357 7.32768 1.25 7.64002 1.25H15C15.4142 1.25 15.75 1.58579 15.75 2V12C15.75 13.5142 14.5142 14.75 13 14.75H2C1.58579 14.75 1.25 14.4142 1.25 14V7.62C1.25 7.3047 1.4472 7.02306 1.74349 6.91522C2.03978 6.80739 2.37186 6.89639 2.57453 7.13793C3.16054 7.83633 4.06388 8.27463 5.07188 8.25024L5.07517 8.25017C5.89681 8.2339 6.62727 7.91834 7.17176 7.39787C7.18349 7.38665 7.19559 7.37581 7.20803 7.36538C7.43844 7.17214 7.6426 6.917 7.80439 6.62578L7.81411 6.60882C8.10523 6.11552 8.26636 5.53389 8.25026 4.92999C8.22581 3.97667 7.80387 3.14099 7.14563 2.56402C6.91076 2.35814 6.82807 2.02823 6.93805 1.7359ZM9.18292 2.75C9.52679 3.38679 9.72973 4.11317 9.74973 4.89031C9.77347 5.78284 9.53658 6.63797 9.11087 7.3628C8.87709 7.78147 8.56917 8.17699 8.1908 8.49874C7.3776 9.26794 6.29569 9.7259 5.10649 9.74984C4.25444 9.77016 3.44778 9.56352 2.75 9.18379V13.25H13C13.6858 13.25 14.25 12.6858 14.25 12V2.75H9.18292Z" fill="#2196F3" stroke="black"/>
<path fill-rule="evenodd" clip-rule="evenodd" d="M14.25 5C14.25 4.58579 14.5858 4.25 15 4.25H16.84C17.8339 4.25 18.7377 4.788 19.2286 5.63341L19.2311 5.63767L20.941 8.62767C21.0738 8.85979 21.0729 9.14503 20.9387 9.37633C20.8046 9.60763 20.5574 9.75 20.29 9.75H19C18.8642 9.75 18.75 9.86421 18.75 10V13C18.75 13.1358 18.8642 13.25 19 13.25H22C22.4142 13.25 22.75 13.5858 22.75 14V17C22.75 19.0742 21.0742 20.75 19 20.75H18C17.5858 20.75 17.25 20.4142 17.25 20C17.25 19.3142 16.6858 18.75 16 18.75C15.3142 18.75 14.75 19.3142 14.75 20C14.75 20.4142 14.4142 20.75 14 20.75H10C9.58579 20.75 9.25 20.4142 9.25 20C9.25 19.3142 8.68579 18.75 8 18.75C7.31422 18.75 6.75 19.3142 6.75 20C6.75 20.4142 6.41422 20.75 6 20.75H5C2.92579 20.75 1.25 19.0742 1.25 17V14C1.25 13.5858 1.58579 13.25 2 13.25H13C13.6858 13.25 14.25 12.6858 14.25 12V5ZM15.75 5.75V12C15.75 13.5142 14.5142 14.75 13 14.75H2.75V17C2.75 18.2458 3.75422 19.25 5 19.25H5.35431C5.68227 18.0981 6.7456 17.25 8 17.25C9.25441 17.25 10.3177 18.0981 10.6457 19.25H13.3543C13.6823 18.0981 14.7456 17.25 16 17.25C17.2544 17.25 18.3177 18.0981 18.6457 19.25H19C20.2458 19.25 21.25 18.2458 21.25 17V14.75H19C18.0358 14.75 17.25 13.9642 17.25 13V10C17.25 9.03676 18.0342 8.25159 18.9971 8.25L17.9314 6.38661L17.9303 6.38475C17.701 5.99126 17.2855 5.75 16.84 5.75H15.75Z" fill="#2196F3" stroke="black"/>
<path fill-rule="evenodd" clip-rule="evenodd" d="M8 18.75C7.30965 18.75 6.75 19.3096 6.75 20C6.75 20.6904 7.30965 21.25 8 21.25C8.69036 21.25 9.25 20.6904 9.25 20C9.25 19.3096 8.69036 18.75 8 18.75ZM5.25 20C5.25 18.4812 6.48122 17.25 8 17.25C9.51879 17.25 10.75 18.4812 10.75 20C10.75 21.5188 9.51879 22.75 8 22.75C6.48122 22.75 5.25 21.5188 5.25 20Z" fill="#2196F3" stroke="black"/>
<path fill-rule="evenodd" clip-rule="evenodd" d="M16 18.75C15.3096 18.75 14.75 19.3096 14.75 20C14.75 20.6904 15.3096 21.25 16 21.25C16.6904 21.25 17.25 20.6904 17.25 20C17.25 19.3096 16.6904 18.75 16 18.75ZM13.25 20C13.25 18.4812 14.4812 17.25 16 17.25C17.5188 17.25 18.75 18.4812 18.75 20C18.75 21.5188 17.5188 22.75 16 22.75C14.4812 22.75 13.25 21.5188 13.25 20Z" fill="#2196F3" stroke="black"/>
<path fill-rule="evenodd" clip-rule="evenodd" d="M19 9.75C18.8642 9.75 18.75 9.86421 18.75 10V13C18.75 13.1358 18.8642 13.25 19 13.25H21.25V12.1987L19.8542 9.75H19ZM17.25 10C17.25 9.03579 18.0358 8.25 19 8.25H20.29C20.5594 8.25 20.8081 8.39452 20.9416 8.6286L22.6516 11.6286C22.7161 11.7418 22.75 11.8698 22.75 12V14C22.75 14.4142 22.4142 14.75 22 14.75H19C18.0358 14.75 17.25 13.9642 17.25 13V10Z" fill="#2196F3" stroke="black"/>
</g>
<defs>
<clipPath id="clip0_53_8110">
<rect width="24" height="24" fill="white"/>
</clipPath>
</defs>
</svg>
