<svg width="25" height="25" viewBox="0 0 25 25" fill="none" xmlns="http://www.w3.org/2000/svg">
<path fill-rule="evenodd" clip-rule="evenodd" d="M8 3.81006C5.34771 3.81006 3.19 5.97076 3.19 8.65006C3.19 11.9006 4.69068 14.505 6.57923 16.44C8.47683 18.3843 10.7199 19.6021 12.0623 20.0603L12.0696 20.0628C12.1344 20.0856 12.2686 20.1101 12.44 20.1101C12.6114 20.1101 12.7456 20.0857 12.8104 20.0629L12.8177 20.0603C14.1601 19.6021 16.4032 18.3843 18.3008 16.44C20.1893 14.505 21.69 11.9006 21.69 8.65006C21.69 5.97076 19.5323 3.81006 16.88 3.81006C15.3178 3.81006 13.917 4.56917 13.0421 5.74722C12.9006 5.93774 12.6773 6.05006 12.44 6.05006C12.2027 6.05006 11.9794 5.93774 11.8379 5.74722C10.9625 4.56856 9.57147 3.81006 8 3.81006ZM1.69 8.65006C1.69 5.14936 4.51229 2.31006 8 2.31006C9.73674 2.31006 11.3046 3.01605 12.4403 4.15478C13.5785 3.0157 15.1522 2.31006 16.88 2.31006C20.3677 2.31006 23.19 5.14936 23.19 8.65006C23.19 12.3996 21.4507 15.3602 19.3742 17.4877C17.3083 19.6044 14.8635 20.9462 13.3057 21.4787C13.0314 21.5748 12.7173 21.6101 12.44 21.6101C12.1627 21.6101 11.8486 21.5748 11.5743 21.4787C10.0166 20.9462 7.57169 19.6044 5.50577 17.4877C3.42932 15.3602 1.69 12.3996 1.69 8.65006Z" fill="#8E979F" stroke="white"/>
</svg>
