<svg width="24" height="22" viewBox="0 0 24 22" fill="none" xmlns="http://www.w3.org/2000/svg">
<path fill-rule="evenodd" clip-rule="evenodd" d="M7.49994 2.75C4.84765 2.75 2.68994 4.9107 2.68994 7.59C2.68994 10.8405 4.19062 13.4449 6.07917 15.3799C7.97677 17.3242 10.2198 18.542 11.5622 19.0002L11.5695 19.0027C11.6343 19.0255 11.7685 19.05 11.9399 19.05C12.1113 19.05 12.2455 19.0256 12.3103 19.0028L12.3176 19.0002C13.66 18.542 15.9031 17.3242 17.8007 15.3799C19.6892 13.4449 21.1899 10.8405 21.1899 7.59C21.1899 4.9107 19.0322 2.75 16.3799 2.75C14.8177 2.75 13.4169 3.50911 12.542 4.68716C12.4005 4.87768 12.1772 4.99 11.9399 4.99C11.7026 4.99 11.4793 4.87768 11.3378 4.68716C10.4624 3.5085 9.07141 2.75 7.49994 2.75ZM1.18994 7.59C1.18994 4.0893 4.01223 1.25 7.49994 1.25C9.23668 1.25 10.8045 1.95599 11.9402 3.09472C13.0784 1.95564 14.6521 1.25 16.3799 1.25C19.8676 1.25 22.6899 4.0893 22.6899 7.59C22.6899 11.3395 20.9506 14.3001 18.8741 16.4276C16.8082 18.5443 14.3634 19.8861 12.8056 20.4186C12.5313 20.5147 12.2172 20.55 11.9399 20.55C11.6626 20.55 11.3485 20.5147 11.0742 20.4186C9.51649 19.8861 7.07163 18.5443 5.00571 16.4276C2.92926 14.3001 1.18994 11.3395 1.18994 7.59Z" fill="#8E979F" stroke="black"/>
</svg>
