<svg width="24" height="24" viewBox="0 0 24 24" fill="none" xmlns="http://www.w3.org/2000/svg">
<path fill-rule="evenodd" clip-rule="evenodd" d="M12.0032 2.75C8.58655 2.74769 5.24468 4.73032 4.35146 8.65591C3.2944 13.3261 6.18812 17.3762 8.91023 19.9997C10.6407 21.661 13.3607 21.659 15.0792 20.0004L15.0805 19.999C17.8125 17.3756 20.7057 13.3354 19.6485 8.6656C18.76 4.73974 15.4202 2.75231 12.0032 2.75ZM21.1115 8.33441C20.04 3.60029 15.9848 1.25269 12.0043 1.25C8.02366 1.24731 3.96565 3.58953 2.88872 8.32364C1.64602 13.8131 5.07183 18.3836 7.86958 21.08L7.87053 21.0809C10.1799 23.2989 13.8191 23.3008 16.1205 21.08C18.9283 18.3834 22.3542 13.8239 21.1115 8.33441Z" fill="#2196F3" stroke="black"/>
<path fill-rule="evenodd" clip-rule="evenodd" d="M15.2803 8.46967C15.5732 8.76256 15.5732 9.23744 15.2803 9.53033L11.2803 13.5303C10.9874 13.8232 10.5126 13.8232 10.2197 13.5303L8.71967 12.0303C8.42678 11.7374 8.42678 11.2626 8.71967 10.9697C9.01256 10.6768 9.48744 10.6768 9.78033 10.9697L10.75 11.9393L14.2197 8.46967C14.5126 8.17678 14.9874 8.17678 15.2803 8.46967Z" fill="#2196F3" stroke="black"/>
</svg>
